<svg width="23" height="22" viewBox="0 0 23 22" fill="none" xmlns="http://www.w3.org/2000/svg">
<path d="M14.4421 1.83334C17.0392 1.83334 19.138 2.81418 19.1667 5.30751V19.2225C19.1667 19.3783 19.1284 19.5342 19.0517 19.6717C18.9271 19.8917 18.7163 20.0567 18.4575 20.13C18.2084 20.2033 17.9305 20.1667 17.7005 20.0383L11.4905 17.0683L5.27087 20.0383C5.12808 20.1108 4.96421 20.1575 4.80129 20.1575C4.26462 20.1575 3.83337 19.7358 3.83337 19.2225V5.30751C3.83337 2.81418 5.94171 1.83334 8.52921 1.83334H14.4421ZM15.0938 7.37001H7.87754C7.46546 7.37001 7.13004 7.69084 7.13004 8.09418C7.13004 8.49659 7.46546 8.81834 7.87754 8.81834H15.0938C15.5059 8.81834 15.8413 8.49659 15.8413 8.09418C15.8413 7.69084 15.5059 7.37001 15.0938 7.37001Z" fill="black"/>
</svg>
